HIERARCHY
ROOT Hips
{
	OFFSET 0.000000 0.000000 0.000000
	CHANNELS 6 Xposition Yposition Zposition Zrotation Yrotation Xrotation 
	JOINT LeftUpLeg_virtual
	{
		OFFSET 0.000000 0.000000 0.000000
		CHANNELS 3 Zrotation Yrotation Xrotation
		JOINT LeftUpLeg
		{
			OFFSET 10.205400 -3.823500 0.155100
			CHANNELS 3 Zrotation Yrotation Xrotation
			JOINT LeftLeg
			{
				OFFSET 0.708757 -12.982077 0.567790
				CHANNELS 3 Zrotation Yrotation Xrotation
				JOINT LeftFoot
				{
					OFFSET -0.708756 -10.717838 -2.184338
					CHANNELS 3 Zrotation Yrotation Xrotation
					JOINT LeftToeBase
					{
						OFFSET 0.108149 -7.191104 7.560241
						CHANNELS 3 Zrotation Yrotation Xrotation
						JOINT LeftToe_End
						{
							OFFSET 0.070230 0.081724 4.490308
							CHANNELS 3 Zrotation Yrotation Xrotation
							End Site
							{
								OFFSET 0.000000 0.000000 0.000000
							}
						}
					}
				}
			}
		}
	}
	JOINT RightUpLeg_virtual
	{
		OFFSET 0.000000 0.000000 0.000000
		CHANNELS 3 Zrotation Yrotation Xrotation
		JOINT RightUpLeg
		{
			OFFSET -10.205400 -3.823500 0.005500
			CHANNELS 3 Zrotation Yrotation Xrotation
			JOINT RightLeg
			{
				OFFSET -0.708756 -12.982134 0.610632
				CHANNELS 3 Zrotation Yrotation Xrotation
				JOINT RightFoot
				{
					OFFSET 0.708754 -10.717769 -1.945823
					CHANNELS 3 Zrotation Yrotation Xrotation
					JOINT RightToeBase
					{
						OFFSET -0.108140 -7.191069 7.372968
						CHANNELS 3 Zrotation Yrotation Xrotation
						JOINT RightToe_End
						{
							OFFSET -0.070227 0.081735 4.479403
							CHANNELS 3 Zrotation Yrotation Xrotation
							End Site
							{
								OFFSET 0.000000 0.000000 0.000000
							}
						}
					}
				}
			}
		}
	}
	JOINT Spine_virtual
	{
		OFFSET 0.000000 0.000000 0.000000
		CHANNELS 3 Zrotation Yrotation Xrotation
		JOINT Spine
		{
			OFFSET 0.000000 6.876099 0.125700
			CHANNELS 3 Zrotation Yrotation Xrotation
			JOINT Spine1
			{
				OFFSET 0.000000 5.730043 0.104720
				CHANNELS 3 Zrotation Yrotation Xrotation
				JOINT Spine1_split
				{
					OFFSET 0.000000 5.730043 0.104720
					CHANNELS 3 Zrotation Yrotation Xrotation
					JOINT Spine2
					{
						OFFSET 0.000000 5.730043 0.104720
						CHANNELS 3 Zrotation Yrotation Xrotation
						JOINT Neck_virtual
						{
							OFFSET 0.000000 0.000000 0.000000
							CHANNELS 3 Zrotation Yrotation Xrotation
							JOINT Neck
							{
								OFFSET 0.000000 10.314075 0.188496
								CHANNELS 3 Zrotation Yrotation Xrotation
								JOINT Head
								{
									OFFSET 0.000000 7.643700 -2.377400
									CHANNELS 3 Zrotation Yrotation Xrotation
									JOINT HeadTop_End
									{
										OFFSET 0.000000 43.788605 -13.619600
										CHANNELS 3 Zrotation Yrotation Xrotation
										End Site
										{
											OFFSET 0.000000 0.000000 0.000000
										}
									}
								}
							}
						}
						JOINT LeftShoulder_virtual
						{
							OFFSET 0.000000 0.000000 0.000000
							CHANNELS 3 Zrotation Yrotation Xrotation
							JOINT LeftShoulder
							{
								OFFSET 2.196100 4.412489 0.087492
								CHANNELS 3 Zrotation Yrotation Xrotation
								JOINT LeftShoulder_split
								{
									OFFSET 2.196100 4.412489 0.087492
									CHANNELS 3 Zrotation Yrotation Xrotation
									JOINT LeftArm
									{
										OFFSET 8.771219 -2.981674 -0.026999
										CHANNELS 3 Zrotation Yrotation Xrotation
										JOINT LeftForeArm
										{
											OFFSET 8.512804 0.000000 -0.000000
											CHANNELS 3 Zrotation Yrotation Xrotation
											JOINT LeftHand
											{
												OFFSET 18.484802 0.000000 -0.000000
												CHANNELS 3 Zrotation Yrotation Xrotation
												End Site
												{
													OFFSET 0.000000 0.000000 0.000000
												}
											}
										}
									}
								}
							}
						}
						JOINT RightShoulder_virtual
						{
							OFFSET 0.000000 0.000000 0.000000
							CHANNELS 3 Zrotation Yrotation Xrotation
							JOINT RightShoulder
							{
								OFFSET -2.196100 4.412496 0.070690
								CHANNELS 3 Zrotation Yrotation Xrotation
								JOINT RightShoulder_split
								{
									OFFSET -2.196100 4.412496 0.070690
									CHANNELS 3 Zrotation Yrotation Xrotation
									JOINT RightArm
									{
										OFFSET -8.771282 -2.981682 -0.094208
										CHANNELS 3 Zrotation Yrotation Xrotation
										JOINT RightForeArm
										{
											OFFSET -8.494598 0.000000 0.000000
											CHANNELS 3 Zrotation Yrotation Xrotation
											JOINT RightHand
											{
												OFFSET -18.483803 0.000000 0.000001
												CHANNELS 3 Zrotation Yrotation Xrotation
												End Site
												{
													OFFSET 0.000000 0.000000 0.000000
												}
											}
										}
									}
								}
							}
						}
					}
				}
			}
		}
	}
}
MOTION
Frames: 6
Frame Time: 0.033333
0.560271 26.919344 -3.309050 -0.111024 -0.081288 0.024615 4.106521 -77.643337 -2.807693 46.442773 40.210147 -15.317673 -14.707523 -15.032632 39.475666 -44.320206 20.625503 -5.862704 -2.351189 -9.072239 3.724675 0.000000 0.000000 0.000000 -2.184243 -77.938223 1.621204 -25.253192 -7.482834 -31.960357 12.828670 17.333955 52.901072 53.091918 5.077358 -26.180518 -19.860846 -0.362066 6.388982 0.000000 0.000000 0.000000 -0.736741 -72.837035 2.257250 2.029135 4.341892 0.405886 -2.857118 0.272861 5.193954 0.210821 -0.884952 0.175415 0.021473 -0.023109 -0.022675 -1.366062 2.029472 10.483703 5.594517 24.145672 -10.842588 -13.458777 -6.316570 18.209920 0.000000 0.000000 0.000000 -1.503301 0.059399 9.916224 -6.469239 -0.326124 4.534786 -4.239702 -7.153851 4.941939 6.776212 -18.848095 -63.441625 11.435827 -13.511087 6.428443 0.000000 0.000000 0.000000 -1.855871 -0.485409 6.674662 1.146066 16.837431 -4.819332 7.892918 -1.981747 13.171301 35.060956 66.307968 28.095908 170.024008 84.915849 -177.753242 0.000000 0.000000 0.000000 
0.572863 26.914011 -3.287706 -0.090391 -0.040339 0.024282 2.790720 -77.589911 -1.466793 47.051787 39.119109 -15.100189 -15.254920 -15.007141 40.637734 -44.155500 20.448613 -7.134302 -0.965262 -8.596084 4.085231 0.000000 0.000000 0.000000 -3.570355 -77.430733 3.121301 -25.087761 -7.789983 -32.248243 13.264708 16.710345 53.158293 51.806097 5.024833 -26.461094 -15.856378 1.381919 6.145572 0.000000 0.000000 0.000000 -0.010179 -72.958278 1.714615 2.023400 4.190464 -0.173563 -2.807291 0.214544 4.761680 0.215633 -0.725455 0.060408 -0.008811 0.012811 -0.032243 -1.112661 1.797154 10.226975 5.740605 24.461607 -9.810116 -14.804937 -6.148163 18.453616 0.000000 0.000000 0.000000 -1.547665 -0.032080 9.240431 -8.277391 0.749446 4.373304 -3.782813 -6.422496 5.492326 5.709678 -20.069623 -62.569321 11.797199 -14.067956 7.347655 0.000000 0.000000 0.000000 -1.923841 -0.680497 6.191405 1.108403 16.678178 -4.831761 6.646521 -3.855975 12.984395 37.087043 65.953249 29.441011 172.633509 84.419806 -175.581542 0.000000 0.000000 0.000000 
0.532091 27.006704 -3.310837 0.005493 -0.176656 -0.072027 2.268413 -77.807650 -0.569791 47.327180 38.911369 -14.317786 -15.009455 -14.506186 39.727232 -45.440873 21.529159 -6.905570 -1.400897 -7.010708 3.321660 0.000000 0.000000 0.000000 -3.654691 -77.220869 3.466991 -24.983393 -8.275006 -32.847298 13.208667 16.218329 53.187858 50.512992 5.059244 -25.684645 -15.583189 3.235528 6.106313 0.000000 0.000000 0.000000 0.480313 -73.412594 1.310786 1.873557 4.164568 -0.724864 -2.661156 0.036317 4.545728 0.148511 -0.628613 0.119276 -0.011942 0.021649 0.006320 -0.693746 1.383625 9.908615 6.080327 24.602099 -8.675689 -16.890829 -4.678123 16.394317 0.000000 0.000000 0.000000 -1.458681 -0.191117 8.072595 -10.774931 1.435823 4.170148 -2.218565 -6.140455 5.891762 2.943243 -21.500382 -59.262621 11.524354 -15.707413 7.639164 0.000000 0.000000 0.000000 -1.738598 -0.884001 5.764114 1.222731 15.293477 -5.185661 5.681260 -4.319877 11.970042 40.319495 64.788367 32.659519 172.492821 85.946190 -176.295543 0.000000 0.000000 0.000000 
0.436058 27.222809 -3.310188 -0.079633 0.051995 0.074271 2.808948 -78.374338 -0.814010 47.223955 37.903513 -13.346020 -14.195694 -14.126286 38.410890 -46.268040 22.579702 -7.473493 -2.002817 -5.930103 2.387534 0.000000 0.000000 0.000000 -2.673853 -77.594753 2.852874 -24.869750 -9.175645 -33.085815 13.274024 15.868604 52.578776 49.152982 4.795191 -24.278148 -15.981666 3.416757 5.347929 0.000000 0.000000 0.000000 1.116111 -74.153608 0.720891 1.856538 4.169233 -1.086896 -2.330240 -0.252710 4.532344 0.124478 -0.624080 0.144177 -0.006148 -0.035698 -0.004704 -0.336750 0.865425 9.590835 6.331047 24.421283 -7.601388 -19.594920 -2.407716 12.384000 0.000000 0.000000 0.000000 -1.443353 -0.419193 7.123371 -13.853529 1.334305 3.804050 -0.144225 -6.391045 6.243061 -1.169603 -23.104947 -53.871891 10.611750 -19.663182 7.308929 0.000000 0.000000 0.000000 -1.479138 -1.063242 5.435698 1.521174 13.124646 -5.684314 5.037532 -3.229612 10.787825 44.297120 62.580898 37.009527 135.187721 89.118621 145.642323 0.000000 0.000000 0.000000 
0.276607 27.555241 -3.271305 0.058121 -0.137972 -0.074975 2.859245 -78.350063 -0.727166 46.345832 36.458597 -12.021759 -12.637885 -13.673143 35.796803 -48.042533 24.275971 -8.505974 -3.719489 -4.119660 0.760440 0.000000 0.000000 0.000000 -0.379520 -77.614465 1.141705 -25.293814 -9.848630 -33.496600 12.783584 15.523350 51.825010 48.291729 4.875439 -22.885286 -15.957883 3.813905 5.290643 0.000000 0.000000 0.000000 0.752688 -74.652082 1.032077 1.765668 4.279484 -1.326132 -1.947157 -0.516367 4.350991 0.102587 -0.570858 0.195806 -0.011476 0.017873 0.068600 0.029359 0.450406 9.305789 6.492977 24.289951 -6.356862 -22.453178 0.140788 7.475132 0.000000 0.000000 0.000000 -1.428097 -0.691011 6.601276 -16.527543 0.250824 3.922969 1.731865 -6.768114 7.123860 -6.308622 -24.712627 -46.627147 9.432919 -26.179429 7.332614 0.000000 0.000000 0.000000 -1.067662 -1.205474 5.367328 2.649233 10.299860 -5.914870 4.720403 -1.354050 9.494451 47.934493 59.640119 40.965139 11.123176 85.047849 20.698835 0.000000 0.000000 0.000000 
0.124280 27.947500 -3.218010 -0.060964 0.001785 0.054742 4.621053 -78.119264 -2.481100 44.782948 34.966255 -11.018031 -10.786055 -13.380134 32.662374 -49.366261 26.035476 -9.304114 -7.772691 -3.660444 -2.235114 0.000000 0.000000 0.000000 2.831041 -77.532264 -1.609890 -25.598017 -10.295291 -32.616066 11.956865 15.815643 50.119412 48.311810 4.730108 -21.757977 -16.963186 3.737990 5.336932 0.000000 0.000000 0.000000 1.650874 -74.866154 -0.026146 1.848127 4.218756 -1.053202 -1.535824 -0.913397 4.598867 0.104708 -0.674029 0.173420 -0.031799 0.005820 -0.034137 0.233446 0.095606 8.914598 6.505527 23.908220 -5.075821 -24.989185 2.276851 2.246100 0.000000 0.000000 0.000000 -1.520982 -1.050264 6.451697 -18.571679 -1.721384 4.176304 2.917254 -6.735970 8.503066 -10.725911 -26.433402 -37.894586 7.965221 -34.867989 7.257469 0.000000 0.000000 0.000000 -0.784246 -1.425411 5.589781 4.393792 7.326414 -6.547302 4.129508 0.259301 7.861149 51.023251 56.297619 43.984236 7.657184 77.266583 16.341158 0.000000 0.000000 0.000000 
